<svg width="26" height="25" viewBox="0 0 26 25" fill="none" xmlns="http://www.w3.org/2000/svg">
<circle cx="13.1288" cy="5.49451" r="4.92632" stroke="#999999" stroke-width="1.13636"/>
<mask id="path-2-inside-1_167_1281" fill="white">
<path d="M22.8818 24.9315C24.3991 24.9315 25.659 23.6872 25.33 22.206C25.1721 21.4951 24.9523 20.7976 24.6723 20.1216C24.0407 18.5967 23.1149 17.2112 21.9478 16.0441C20.7807 14.877 19.3951 13.9512 17.8702 13.3195C16.3453 12.6879 14.7109 12.3628 13.0604 12.3628C11.4098 12.3628 9.77546 12.6879 8.25055 13.3195C6.72565 13.9512 5.34009 14.877 4.17298 16.0441C3.00587 17.2112 2.08007 18.5967 1.44843 20.1216C1.16843 20.7976 0.948664 21.4951 0.790755 22.206C0.461746 23.6872 1.72169 24.9315 3.23895 24.9315L13.0604 24.9315H22.8818Z"/>
</mask>
<path d="M22.8818 24.9315C24.3991 24.9315 25.659 23.6872 25.33 22.206C25.1721 21.4951 24.9523 20.7976 24.6723 20.1216C24.0407 18.5967 23.1149 17.2112 21.9478 16.0441C20.7807 14.877 19.3951 13.9512 17.8702 13.3195C16.3453 12.6879 14.7109 12.3628 13.0604 12.3628C11.4098 12.3628 9.77546 12.6879 8.25055 13.3195C6.72565 13.9512 5.34009 14.877 4.17298 16.0441C3.00587 17.2112 2.08007 18.5967 1.44843 20.1216C1.16843 20.7976 0.948664 21.4951 0.790755 22.206C0.461746 23.6872 1.72169 24.9315 3.23895 24.9315L13.0604 24.9315H22.8818Z" stroke="#999999" stroke-width="2.27273" mask="url(#path-2-inside-1_167_1281)"/>
</svg>
