<svg width="95" height="91" viewBox="0 0 95 91" fill="none" xmlns="http://www.w3.org/2000/svg">
<g clip-path="url(#clip0_112_1741)">
<path d="M44.8322 17.0282L46.9163 21.04L49.0072 17.0318C52.8542 9.65734 59.5292 5.04244 67.6014 5.04244C80.9782 5.04244 91.488 15.8378 91.488 31.6212C91.488 41.2205 87.4581 50.9019 80.0373 60.4225C72.6156 69.9442 61.8944 79.1806 48.7792 87.8212C48.4254 88.0523 48.0036 88.2803 47.6055 88.443C47.4081 88.5237 47.2393 88.579 47.1053 88.6123C46.9896 88.6411 46.9303 88.6459 46.9204 88.6467C46.9198 88.6466 46.9187 88.6464 46.917 88.6462C46.8862 88.6416 46.6752 88.6107 46.2748 88.4457C45.8771 88.2818 45.4528 88.0521 45.0984 87.8206C31.9646 79.18 21.2344 69.9436 13.8083 60.4219C6.38321 50.9016 2.35345 41.2204 2.35345 31.6212C2.35345 15.8378 12.8632 5.04244 26.24 5.04244C34.3474 5.04244 41.0217 9.69315 44.8322 17.0282Z" stroke="#3C3C43" stroke-opacity="0.3" stroke-width="4.7069"/>
</g>
<defs>
<clipPath id="clip0_112_1741">
<rect width="94.1379" height="91" fill="white"/>
</clipPath>
</defs>
</svg>
