<svg width="26" height="25" viewBox="0 0 26 25" fill="none" xmlns="http://www.w3.org/2000/svg">
<circle cx="13.1302" cy="5.49451" r="4.92632" stroke="#6E2C9B" stroke-width="1.13636"/>
<mask id="path-2-inside-1_202_1657" fill="white">
<path d="M22.8823 24.931C24.3996 24.931 25.6595 23.6867 25.3305 22.2055C25.1726 21.4947 24.9528 20.7971 24.6728 20.1212C24.0412 18.5963 23.1154 17.2107 21.9483 16.0436C20.7812 14.8765 19.3956 13.9507 17.8707 13.319C16.3458 12.6874 14.7114 12.3623 13.0609 12.3623C11.4103 12.3623 9.77594 12.6874 8.25104 13.319C6.72614 13.9507 5.34058 14.8765 4.17347 16.0436C3.00636 17.2107 2.08056 18.5963 1.44892 20.1212C1.16892 20.7971 0.949152 21.4947 0.791243 22.2055C0.462234 23.6867 1.72217 24.931 3.23944 24.931L13.0609 24.931H22.8823Z"/>
</mask>
<path d="M22.8823 24.931C24.3996 24.931 25.6595 23.6867 25.3305 22.2055C25.1726 21.4947 24.9528 20.7971 24.6728 20.1212C24.0412 18.5963 23.1154 17.2107 21.9483 16.0436C20.7812 14.8765 19.3956 13.9507 17.8707 13.319C16.3458 12.6874 14.7114 12.3623 13.0609 12.3623C11.4103 12.3623 9.77594 12.6874 8.25104 13.319C6.72614 13.9507 5.34058 14.8765 4.17347 16.0436C3.00636 17.2107 2.08056 18.5963 1.44892 20.1212C1.16892 20.7971 0.949152 21.4947 0.791243 22.2055C0.462234 23.6867 1.72217 24.931 3.23944 24.931L13.0609 24.931H22.8823Z" stroke="#6E2C9B" stroke-width="2.27273" mask="url(#path-2-inside-1_202_1657)"/>
</svg>
