<svg width="26" height="26" viewBox="0 0 26 26" fill="none" xmlns="http://www.w3.org/2000/svg">
<rect x="2.10449" y="8.64355" width="21.7822" height="14.8119" rx="0.762376" fill="#E5E5EA"/>
<mask id="path-2-outside-1_202_1647" maskUnits="userSpaceOnUse" x="-0.44043" y="0" width="27" height="26" fill="black">
<rect fill="white" x="-0.44043" width="27" height="26"/>
<path fill-rule="evenodd" clip-rule="evenodd" d="M4.39125 2.65346C4.39125 2.29257 4.68382 2 5.04472 2H20.9457C21.3066 2 21.5992 2.29257 21.5992 2.65347V4.39604C21.5992 4.75694 21.3066 5.0495 20.9457 5.0495L18.4191 5.0495C18.2361 5.0495 18.1446 5.0495 18.0747 5.08512C18.0133 5.11644 17.9633 5.16643 17.9319 5.2279C17.8963 5.2978 17.8963 5.38929 17.8963 5.57228V7.57624C17.8963 7.75922 17.8963 7.85072 17.9319 7.92061C17.9633 7.98209 18.0133 8.03207 18.0747 8.0634C18.1446 8.09901 18.2361 8.09901 18.4191 8.09901L23.4507 8.09901C23.992 8.09901 24.4309 8.53786 24.4309 9.07921V23.0198C24.4309 23.5611 23.992 24 23.4507 24H2.53977C1.99842 24 1.55957 23.5611 1.55957 23.0198V9.07921C1.55957 8.53786 1.99842 8.09901 2.53977 8.09901L7.57158 8.09901C7.75456 8.09901 7.84606 8.09901 7.91595 8.0634C7.97743 8.03207 8.02741 7.98209 8.05874 7.92061C8.09435 7.85072 8.09435 7.75922 8.09435 7.57624V5.57228C8.09435 5.38929 8.09435 5.2978 8.05874 5.2279C8.02741 5.16643 7.97743 5.11644 7.91595 5.08512C7.84606 5.0495 7.75456 5.0495 7.57158 5.0495L5.04472 5.0495C4.68382 5.0495 4.39125 4.75694 4.39125 4.39604V2.65346Z"/>
</mask>
<path d="M20.9457 5.0495V3.74257V5.0495ZM23.4507 8.09901V6.79208V8.09901ZM2.53977 8.09901L2.53977 6.79208H2.53977V8.09901ZM5.04472 5.0495V3.74257V5.0495ZM8.05874 5.2279L6.89425 5.82124L8.05874 5.2279ZM7.57158 5.0495V6.35644V5.0495ZM7.91595 5.08512L8.50928 3.92063L7.91595 5.08512ZM17.9319 7.92061L19.0964 7.32728L17.9319 7.92061ZM18.4191 8.09901V9.40594V8.09901ZM18.0747 8.0634L17.4814 9.22788L18.0747 8.0634ZM7.57158 8.09901V9.40594V8.09901ZM7.91595 8.0634L8.50928 9.22788L7.91595 8.0634ZM8.05874 7.92061L6.89425 7.32728L8.05874 7.92061ZM18.0747 5.08512L18.6681 6.2496L18.0747 5.08512ZM17.9319 5.2279L19.0964 5.82124L17.9319 5.2279ZM5.04472 0.693069C3.96202 0.693069 3.08432 1.57077 3.08432 2.65346H5.69819C5.69819 3.01436 5.40562 3.30693 5.04472 3.30693V0.693069ZM20.9457 0.693069H5.04472V3.30693H20.9457V0.693069ZM22.9061 2.65347C22.9061 1.57077 22.0284 0.693069 20.9457 0.693069V3.30693C20.5848 3.30693 20.2922 3.01436 20.2922 2.65347H22.9061ZM22.9061 4.39604V2.65347H20.2922V4.39604H22.9061ZM20.9457 6.35643C22.0284 6.35643 22.9061 5.47874 22.9061 4.39604H20.2922C20.2922 4.03514 20.5848 3.74257 20.9457 3.74257V6.35643ZM18.4191 6.35644L20.9457 6.35643V3.74257L18.4191 3.74257V6.35644ZM16.5894 5.57228V7.57624H19.2033V5.57228H16.5894ZM23.4507 6.79208L18.4191 6.79208V9.40594L23.4507 9.40594V6.79208ZM25.7378 9.07921C25.7378 7.81606 24.7138 6.79208 23.4507 6.79208V9.40594C23.2702 9.40594 23.1239 9.25966 23.1239 9.07921H25.7378ZM25.7378 23.0198V9.07921H23.1239V23.0198H25.7378ZM23.4507 25.3069C24.7138 25.3069 25.7378 24.283 25.7378 23.0198H23.1239C23.1239 22.8393 23.2702 22.6931 23.4507 22.6931V25.3069ZM2.53977 25.3069H23.4507V22.6931H2.53977V25.3069ZM0.25264 23.0198C0.25264 24.2829 1.27662 25.3069 2.53977 25.3069V22.6931C2.72022 22.6931 2.8665 22.8393 2.8665 23.0198H0.25264ZM0.25264 9.07921V23.0198H2.8665V9.07921H0.25264ZM2.53977 6.79208C1.27662 6.79208 0.25264 7.81606 0.25264 9.07921H2.8665C2.8665 9.25966 2.72022 9.40594 2.53977 9.40594V6.79208ZM7.57158 6.79208L2.53977 6.79208L2.53977 9.40594L7.57158 9.40594V6.79208ZM9.40128 7.57624V5.57228H6.78742V7.57624H9.40128ZM5.04472 6.35643L7.57158 6.35644V3.74257L5.04472 3.74257V6.35643ZM3.08432 4.39604C3.08432 5.47873 3.96202 6.35643 5.04472 6.35643V3.74257C5.40562 3.74257 5.69819 4.03514 5.69819 4.39604H3.08432ZM3.08432 2.65346V4.39604H5.69819V2.65346H3.08432ZM9.40128 5.57228C9.40128 5.50235 9.4023 5.3713 9.39249 5.25125C9.38143 5.11595 9.35055 4.88446 9.22322 4.63457L6.89425 5.82124C6.80254 5.64124 6.78946 5.49044 6.78731 5.46411C6.78617 5.45014 6.78666 5.44857 6.78702 5.47164C6.78738 5.49467 6.78742 5.52354 6.78742 5.57228H9.40128ZM7.57158 6.35644C7.62031 6.35644 7.64918 6.35647 7.67221 6.35683C7.69528 6.35719 7.69371 6.35769 7.67975 6.35655C7.65341 6.35439 7.50262 6.34132 7.32262 6.2496L8.50928 3.92063C8.25939 3.79331 8.0279 3.76242 7.8926 3.75137C7.77255 3.74156 7.6415 3.74257 7.57158 3.74257V6.35644ZM9.22322 4.63457C9.0666 4.32718 8.81668 4.07726 8.50928 3.92063L7.32262 6.2496C7.13818 6.15563 6.98823 6.00567 6.89425 5.82124L9.22322 4.63457ZM16.5894 7.57624C16.5894 7.64617 16.5884 7.77721 16.5982 7.89726C16.6092 8.03257 16.6401 8.26405 16.7675 8.51394L19.0964 7.32728C19.1881 7.50728 19.2012 7.65807 19.2034 7.68441C19.2045 7.69837 19.204 7.69994 19.2037 7.67688C19.2033 7.65384 19.2033 7.62497 19.2033 7.57624H16.5894ZM18.4191 6.79208C18.3704 6.79208 18.3415 6.79205 18.3185 6.79168C18.2954 6.79132 18.297 6.79083 18.3109 6.79197C18.3373 6.79412 18.4881 6.8072 18.6681 6.89891L17.4814 9.22788C17.7313 9.35521 17.9628 9.38609 18.0981 9.39715C18.2181 9.40696 18.3492 9.40594 18.4191 9.40594V6.79208ZM16.7675 8.51394C16.9241 8.82134 17.174 9.07126 17.4814 9.22788L18.6681 6.89891C18.8525 6.99289 19.0025 7.14284 19.0964 7.32728L16.7675 8.51394ZM7.57158 9.40594C7.6415 9.40594 7.77255 9.40696 7.8926 9.39715C8.0279 9.38609 8.25939 9.35521 8.50928 9.22788L7.32262 6.89891C7.50262 6.8072 7.65341 6.79412 7.67975 6.79197C7.69371 6.79083 7.69528 6.79132 7.67221 6.79168C7.64918 6.79205 7.62031 6.79208 7.57158 6.79208V9.40594ZM6.78742 7.57624C6.78742 7.62497 6.78738 7.65384 6.78702 7.67688C6.78666 7.69994 6.78617 7.69837 6.78731 7.68441C6.78946 7.65807 6.80254 7.50728 6.89425 7.32728L9.22322 8.51394C9.35055 8.26405 9.38143 8.03257 9.39249 7.89726C9.4023 7.77721 9.40128 7.64617 9.40128 7.57624H6.78742ZM8.50928 9.22788C8.81668 9.07126 9.0666 8.82134 9.22322 8.51394L6.89425 7.32728C6.98823 7.14284 7.13818 6.99289 7.32262 6.89891L8.50928 9.22788ZM18.4191 3.74257C18.3492 3.74257 18.2181 3.74156 18.0981 3.75137C17.9628 3.76242 17.7313 3.79331 17.4814 3.92063L18.6681 6.2496C18.4881 6.34132 18.3373 6.35439 18.3109 6.35655C18.297 6.35769 18.2954 6.35719 18.3185 6.35683C18.3415 6.35647 18.3704 6.35644 18.4191 6.35644V3.74257ZM19.2033 5.57228C19.2033 5.52355 19.2033 5.49467 19.2037 5.47164C19.204 5.44857 19.2045 5.45014 19.2034 5.46411C19.2012 5.49044 19.1881 5.64124 19.0964 5.82124L16.7675 4.63457C16.6401 4.88446 16.6092 5.11595 16.5982 5.25125C16.5884 5.3713 16.5894 5.50235 16.5894 5.57228H19.2033ZM17.4814 3.92063C17.174 4.07726 16.9241 4.32718 16.7675 4.63457L19.0964 5.82124C19.0025 6.00567 18.8525 6.15563 18.6681 6.2496L17.4814 3.92063Z" fill="#999999" mask="url(#path-2-outside-1_202_1647)"/>
<rect x="8.8025" y="5.2129" width="8.27723" height="1.19802" rx="0.59901" fill="#999999" stroke="#999999" stroke-width="0.108911"/>
</svg>
