<svg width="94" height="89" viewBox="0 0 94 89" fill="none" xmlns="http://www.w3.org/2000/svg">
<path d="M44.9708 15.0282L47.0549 19.04L49.1459 15.0318C52.9929 7.65734 59.6679 3.04244 67.74 3.04244C81.1168 3.04244 91.6266 13.8378 91.6266 29.6212C91.6266 39.2205 87.5967 48.9019 80.1759 58.4225C72.7542 67.9442 62.0331 77.1806 48.9179 85.8212C48.564 86.0523 48.1422 86.2803 47.7441 86.443C47.5468 86.5237 47.3779 86.579 47.244 86.6123C47.1283 86.6411 47.069 86.6459 47.0591 86.6467C47.0584 86.6466 47.0573 86.6464 47.0557 86.6462C47.0249 86.6416 46.8139 86.6107 46.4134 86.4457C46.0158 86.2818 45.5914 86.0521 45.237 85.8206C32.1033 77.18 21.3731 67.9436 13.947 58.4219C6.52189 48.9016 2.49212 39.2204 2.49212 29.6212C2.49212 13.8378 13.0018 3.04244 26.3787 3.04244C34.4861 3.04244 41.1604 7.69315 44.9708 15.0282Z" fill="#FBF3FF" stroke="black" stroke-width="4.7069"/>
</svg>
